<?xml version="1.0" encoding="utf-8"?>
<!-- Generator: Adobe Illustrator 21.0.2, SVG Export Plug-In . SVG Version: 6.00 Build 0)  -->
<svg version="1.1" id="Layer_1" xmlns="http://www.w3.org/2000/svg" xmlns:xlink="http://www.w3.org/1999/xlink" x="0px" y="0px"
	 viewBox="0 0 24 24" style="enable-background:new 0 0 24 24;" xml:space="preserve">
<g>
	<title>delete-2</title>
	<path d="M19.6,20.4c-0.2,0-0.4-0.1-0.5-0.2l-6.9-7l-6.9,7c-0.1,0.1-0.3,0.2-0.5,0.2s-0.4-0.1-0.5-0.2c-0.1-0.1-0.2-0.3-0.2-0.5
		s0.1-0.4,0.2-0.5l7-6.9l-7-6.9C4,5.1,3.9,4.9,3.9,4.7S4,4.3,4.1,4.1C4.2,4,4.4,3.9,4.7,3.9S5.1,4,5.2,4.1l6.9,7l6.9-7
		c0.1-0.1,0.3-0.2,0.5-0.2c0.2,0,0.4,0.1,0.5,0.2c0.1,0.1,0.2,0.3,0.2,0.5c0,0.2-0.1,0.4-0.2,0.5l-7,6.9l6.9,6.9
		c0.1,0.1,0.2,0.3,0.2,0.5c0,0.2-0.1,0.4-0.2,0.5C20,20.3,19.8,20.4,19.6,20.4z"/>
</g>
</svg>
