<?xml version="1.0" encoding="utf-8"?>
<!-- Generator: Adobe Illustrator 21.0.2, SVG Export Plug-In . SVG Version: 6.00 Build 0)  -->
<svg version="1.1" id="Capa_1" xmlns="http://www.w3.org/2000/svg" xmlns:xlink="http://www.w3.org/1999/xlink" x="0px" y="0px"
	 viewBox="0 0 90 90" style="enable-background:new 0 0 90 90;" xml:space="preserve">
<style type="text/css">
	.st0{fill:none;stroke:#FFFFFF;stroke-width:2;stroke-miterlimit:10;}
</style>
<path class="st0" d="M71.4,14.5c1.4-4,0.5-9.6-1-12.9c-3.1,0.1-5.3,0.6-8,1.7c-2,0.9-4.4,3.3-6.5,3.5c-2.2,0.2-5.1-1.1-8-1.2
	c-6.8-0.4-12,0.3-17,1.7c-4-2.6-7.9-5.4-14.2-5.7c-2.1,3.2-2.6,9.8-1,13.9c-5.7,4.8-5.1,20.6-2.5,28.8c3.8,7.5,12,10.5,22,11.9
	c-2,1.5-3.4,3.6-4,6.5c-2.3,0.5-3.5,1.3-6,1.2c-8-0.3-8.3-11.6-17.2-9.4c0.7,2.4,3,2.7,4.5,4.5c1.5,1.8,1.8,4.2,3,6.2
	c2.7,4.5,8.3,6.1,15.5,4.7c-0.5,4.3,0.9,8.5-0.5,11.4c-1,2.1-3.3,1.7-3.7,4c3.4,1.3,7.8,0,9.2-3c2.4-5.2-1.9-15.4,2-18.4
	c-0.8,6.4,1.4,14.3-0.5,19.6c-0.6,1.8-2.3,2.5-2,4.5c10.2,1.3,8.2-11.7,8.2-21.1c0-1.1-0.8-3.6,1-3.7c1.9,9.7-3,26,8.7,24.8
	c0.5-1.9-1.4-2.7-2-4.7c-1.6-5.2,0-13.5-0.2-19.4c3.4,3.6,0.3,12,1.5,17.4c0.7,3.1,7,6.5,9.5,3.5c-1-1.6-2.6-1.6-3.5-3.5
	c-2-3.9,0-12.3-0.7-18.1c-0.5-3.9-2.6-4.8-3.7-7.2c10.3-0.8,17.7-4.3,21.5-11.7C78.5,34.4,77.2,19.4,71.4,14.5z"/>
</svg>
